<svg width="60" height="60" viewBox="0 0 60 60" fill="none" xmlns="http://www.w3.org/2000/svg">
<circle cx="30" cy="30" r="30" fill="#E14E41"/>
<path d="M15.7679 44.052C14.7916 43.0757 14.7916 41.4928 15.7679 40.5165L40.5166 15.7678C41.4929 14.7914 43.0758 14.7914 44.0521 15.7678C45.0285 16.7441 45.0285 18.327 44.0521 19.3033L19.3034 44.052C18.3271 45.0283 16.7442 45.0283 15.7679 44.052Z" fill="black"/>
<path d="M44.0522 44.052C43.0759 45.0283 41.493 45.0283 40.5166 44.052L15.7679 19.3033C14.7916 18.327 14.7916 16.7441 15.7679 15.7678C16.7442 14.7914 18.3271 14.7914 19.3034 15.7678L44.0522 40.5165C45.0285 41.4928 45.0285 43.0757 44.0522 44.052Z" fill="black"/>
</svg>
