<svg width="60" height="60" viewBox="0 0 60 60" fill="none" xmlns="http://www.w3.org/2000/svg">
<path fill-rule="evenodd" clip-rule="evenodd" d="M30 60C46.5685 60 60 46.5685 60 30C60 13.4315 46.5685 0 30 0C13.4315 0 0 13.4315 0 30C0 46.5685 13.4315 60 30 60ZM12 19.3333C12 20.8061 13.1939 22 14.6667 22H45.3333C46.8061 22 48 20.8061 48 19.3333C48 17.8606 46.8061 16.6667 45.3333 16.6667H14.6667C13.1939 16.6667 12 17.8606 12 19.3333ZM12 30C12 31.4728 13.1939 32.6667 14.6667 32.6667H45.3333C46.8061 32.6667 48 31.4728 48 30C48 28.5272 46.8061 27.3333 45.3333 27.3333H14.6667C13.1939 27.3333 12 28.5272 12 30ZM14.6667 43.3333C13.1939 43.3333 12 42.1394 12 40.6667C12 39.1939 13.1939 38 14.6667 38H45.3333C46.8061 38 48 39.1939 48 40.6667C48 42.1394 46.8061 43.3333 45.3333 43.3333H14.6667Z" fill="#E14E41"/>
</svg>
